<svg width="22.000000" height="23.000000" viewBox="0 0 22 23" fill="none" xmlns="http://www.w3.org/2000/svg" xmlns:xlink="http://www.w3.org/1999/xlink">
	<desc>
			Created with Pixso.
	</desc>
	<defs/>
	<path d="M0 10.97C-0.01 12.95 0.53 14.9 1.54 16.6C2.55 18.31 4.01 19.71 5.75 20.65L5.75 22L15.33 22L15.33 20.65C17.07 19.71 18.53 18.31 19.54 16.6C20.55 14.9 21.08 12.95 21.08 10.97L21.08 10.49L0 10.49L0 10.97Z" stroke="#5051F9" stroke-opacity="1.000000" stroke-width="1.000000"/>
	<path d="M17.93 6.12L21.31 1.52" stroke="#5051F9" stroke-opacity="1.000000" stroke-width="1.000000"/>
	<path d="M16.7 5.28L17.83 0" stroke="#5051F9" stroke-opacity="1.000000" stroke-width="1.000000"/>
	<path d="M1.55 10.49C1.29 9.2 1.46 7.85 2.04 6.66C2.62 5.47 3.57 4.51 4.76 3.92C5.94 3.33 7.29 3.15 8.58 3.41C9.88 3.66 11.06 4.34 11.93 5.34" stroke="#5051F9" stroke-opacity="1.000000" stroke-width="1.000000"/>
	<path d="M3.53 10.49C3.26 9.61 3.29 8.66 3.63 7.8C3.97 6.94 4.59 6.22 5.39 5.76C6.19 5.3 7.12 5.13 8.04 5.26C8.95 5.4 9.79 5.85 10.41 6.53" stroke="#5051F9" stroke-opacity="1.000000" stroke-width="1.000000"/>
	<path d="M5.63 10.49C5.47 10.25 5.35 9.97 5.3 9.68C5.25 9.39 5.25 9.09 5.32 8.8C5.39 8.51 5.51 8.24 5.69 8C5.87 7.76 6.09 7.56 6.35 7.41C6.6 7.27 6.89 7.17 7.18 7.14C7.48 7.11 7.78 7.14 8.06 7.22C8.34 7.31 8.61 7.46 8.83 7.65C9.06 7.85 9.24 8.09 9.37 8.35" stroke="#5051F9" stroke-opacity="1.000000" stroke-width="1.000000"/>
	<path d="M15.72 10.49C15.8 10.27 15.83 10.04 15.8 9.81C15.77 9.58 15.68 9.36 15.55 9.17C15.42 8.99 15.24 8.83 15.04 8.72C14.83 8.62 14.6 8.56 14.37 8.56C14.14 8.56 13.91 8.62 13.71 8.72C13.5 8.83 13.33 8.99 13.19 9.17C13.06 9.36 12.98 9.58 12.95 9.81C12.92 10.04 12.94 10.27 13.02 10.49" stroke="#5051F9" stroke-opacity="1.000000" stroke-width="1.000000"/>
	<path d="M17.69 10.49C17.77 10.01 17.74 9.53 17.6 9.06C17.47 8.6 17.24 8.16 16.92 7.8C16.61 7.43 16.22 7.14 15.78 6.93C15.34 6.73 14.86 6.63 14.38 6.63C13.89 6.63 13.42 6.73 12.98 6.93C12.54 7.14 12.15 7.43 11.83 7.8C11.52 8.16 11.28 8.6 11.15 9.06C11.02 9.53 10.99 10.01 11.06 10.49" stroke="#5051F9" stroke-opacity="1.000000" stroke-width="1.000000"/>
	<path d="M19.62 10.49C19.63 10.34 19.65 10.17 19.65 10.01C19.65 8.61 19.09 7.27 18.1 6.28C17.11 5.3 15.77 4.74 14.37 4.74C12.98 4.74 11.63 5.3 10.65 6.28C9.66 7.27 9.1 8.61 9.1 10.01C9.1 10.17 9.11 10.34 9.13 10.49" stroke="#5051F9" stroke-opacity="1.000000" stroke-width="1.000000"/>
</svg>
